<svg xmlns="http://www.w3.org/2000/svg" width="500" height="320" viewBox="0 0 500 320" font-family="Inter, 'Segoe UI', Ubuntu, 'Helvetica Neue', Arial, sans-serif">
<title>POKERSTARS activity for PokerStars</title>
<rect x="0.5" y="0.5" width="499" height="319" rx="4" fill="#101010" stroke="#404040"/>
<svg x="20" y="24" width="36" height="36" viewBox="0 0 24 24"><path fill="#e8202a" d="M12 1C9.2 5.4 3 8.7 3 13.4 3 16 5 18 7.5 18c1.4 0 2.7-.6 3.5-1.7-.2 2.4-1.1 4.2-2.9 6.2h7.8c-1.8-2-2.7-3.8-2.9-6.2.8 1.1 2.1 1.7 3.5 1.7 2.5 0 4.5-2 4.5-4.6C21 8.7 14.8 5.4 12 1Z"/></svg>
<text x="68" y="34" font-size="13" font-weight="700" fill="#e8202a" text-anchor="start">POKERSTARS</text>
<text x="68" y="60" font-size="22" font-weight="700" fill="#f0f0f0" text-anchor="start">PokerStars</text>
<rect x="415.6" y="30" width="64.4" height="24" rx="12" fill="none" stroke="#e8202a" stroke-width="1.5"/>
<text x="447.8" y="46" font-size="12" font-weight="700" fill="#e8202a" text-anchor="middle">0 Hands</text>
<text x="77.5" y="105" font-size="18" font-weight="700" fill="#f0f0f0" text-anchor="middle">—</text>
<text x="77.5" y="122" font-size="11" font-weight="400" fill="#9a9a9a" text-anchor="middle">VPIP</text>
<text x="192.5" y="105" font-size="18" font-weight="700" fill="#f0f0f0" text-anchor="middle">—</text>
<text x="192.5" y="122" font-size="11" font-weight="400" fill="#9a9a9a" text-anchor="middle">PFR</text>
<text x="307.5" y="105" font-size="18" font-weight="700" fill="#f0f0f0" text-anchor="middle">—</text>
<text x="307.5" y="122" font-size="11" font-weight="400" fill="#9a9a9a" text-anchor="middle">Won at Showdown</text>
<text x="422.5" y="105" font-size="18" font-weight="700" fill="#f0f0f0" text-anchor="middle">0</text>
<text x="422.5" y="122" font-size="11" font-weight="400" fill="#9a9a9a" text-anchor="middle">Tournaments</text>
<text x="77.5" y="155" font-size="18" font-weight="700" fill="#f0f0f0" text-anchor="middle">0</text>
<text x="77.5" y="172" font-size="11" font-weight="400" fill="#9a9a9a" text-anchor="middle">Past Year</text>
<text x="192.5" y="155" font-size="18" font-weight="700" fill="#f0f0f0" text-anchor="middle">0</text>
<text x="192.5" y="172" font-size="11" font-weight="400" fill="#9a9a9a" text-anchor="middle">Active Days</text>
<text x="307.5" y="155" font-size="18" font-weight="700" fill="#f0f0f0" text-anchor="middle">0</text>
<text x="307.5" y="172" font-size="11" font-weight="400" fill="#9a9a9a" text-anchor="middle">Current Streak</text>
<text x="422.5" y="155" font-size="18" font-weight="700" fill="#f0f0f0" text-anchor="middle">0</text>
<text x="422.5" y="172" font-size="11" font-weight="400" fill="#9a9a9a" text-anchor="middle">Longest Streak</text>
<line x1="10" y1="200" x2="490" y2="200" stroke="#404040"/>
<text x="20" y="220" font-size="14" font-weight="400" fill="#f0f0f0" text-anchor="start">Heatmap (Last 52 Weeks)</text>
<rect x="20.0" y="235.0" width="7.2" height="7.2" rx="1.5" fill="#e8202a" fill-opacity="0.16"/>
<rect x="20.0" y="243.6" width="7.2" height="7.2" rx="1.5" fill="#e8202a" fill-opacity="0.16"/>
<rect x="20.0" y="252.2" width="7.2" height="7.2" rx="1.5" fill="#e8202a" fill-opacity="0.16"/>
<rect x="20.0" y="260.8" width="7.2" height="7.2" rx="1.5" fill="#e8202a" fill-opacity="0.16"/>
<rect x="20.0" y="269.4" width="7.2" height="7.2" rx="1.5" fill="#e8202a" fill-opacity="0.16"/>
<rect x="20.0" y="278.0" width="7.2" height="7.2" rx="1.5" fill="#e8202a" fill-opacity="0.16"/>
<rect x="20.0" y="286.6" width="7.2" height="7.2" rx="1.5" fill="#e8202a" fill-opacity="0.16"/>
<rect x="28.6" y="235.0" width="7.2" height="7.2" rx="1.5" fill="#e8202a" fill-opacity="0.16"/>
<rect x="28.6" y="243.6" width="7.2" height="7.2" rx="1.5" fill="#e8202a" fill-opacity="0.16"/>
<rect x="28.6" y="252.2" width="7.2" height="7.2" rx="1.5" fill="#e8202a" fill-opacity="0.16"/>
<rect x="28.6" y="260.8" width="7.2" height="7.2" rx="1.5" fill="#e8202a" fill-opacity="0.16"/>
<rect x="28.6" y="269.4" width="7.2" height="7.2" rx="1.5" fill="#e8202a" fill-opacity="0.16"/>
<rect x="28.6" y="278.0" width="7.2" height="7.2" rx="1.5" fill="#e8202a" fill-opacity="0.16"/>
<rect x="28.6" y="286.6" width="7.2" height="7.2" rx="1.5" fill="#e8202a" fill-opacity="0.16"/>
<rect x="37.2" y="235.0" width="7.2" height="7.2" rx="1.5" fill="#e8202a" fill-opacity="0.16"/>
<rect x="37.2" y="243.6" width="7.2" height="7.2" rx="1.5" fill="#e8202a" fill-opacity="0.16"/>
<rect x="37.2" y="252.2" width="7.2" height="7.2" rx="1.5" fill="#e8202a" fill-opacity="0.16"/>
<rect x="37.2" y="260.8" width="7.2" height="7.2" rx="1.5" fill="#e8202a" fill-opacity="0.16"/>
<rect x="37.2" y="269.4" width="7.2" height="7.2" rx="1.5" fill="#e8202a" fill-opacity="0.16"/>
<rect x="37.2" y="278.0" width="7.2" height="7.2" rx="1.5" fill="#e8202a" fill-opacity="0.16"/>
<rect x="37.2" y="286.6" width="7.2" height="7.2" rx="1.5" fill="#e8202a" fill-opacity="0.16"/>
<rect x="45.8" y="235.0" width="7.2" height="7.2" rx="1.5" fill="#e8202a" fill-opacity="0.16"/>
<rect x="45.8" y="243.6" width="7.2" height="7.2" rx="1.5" fill="#e8202a" fill-opacity="0.16"/>
<rect x="45.8" y="252.2" width="7.2" height="7.2" rx="1.5" fill="#e8202a" fill-opacity="0.16"/>
<rect x="45.8" y="260.8" width="7.2" height="7.2" rx="1.5" fill="#e8202a" fill-opacity="0.16"/>
<rect x="45.8" y="269.4" width="7.2" height="7.2" rx="1.5" fill="#e8202a" fill-opacity="0.16"/>
<rect x="45.8" y="278.0" width="7.2" height="7.2" rx="1.5" fill="#e8202a" fill-opacity="0.16"/>
<rect x="45.8" y="286.6" width="7.2" height="7.2" rx="1.5" fill="#e8202a" fill-opacity="0.16"/>
<rect x="54.4" y="235.0" width="7.2" height="7.2" rx="1.5" fill="#e8202a" fill-opacity="0.16"/>
<rect x="54.4" y="243.6" width="7.2" height="7.2" rx="1.5" fill="#e8202a" fill-opacity="0.16"/>
<rect x="54.4" y="252.2" width="7.2" height="7.2" rx="1.5" fill="#e8202a" fill-opacity="0.16"/>
<rect x="54.4" y="260.8" width="7.2" height="7.2" rx="1.5" fill="#e8202a" fill-opacity="0.16"/>
<rect x="54.4" y="269.4" width="7.2" height="7.2" rx="1.5" fill="#e8202a" fill-opacity="0.16"/>
<rect x="54.4" y="278.0" width="7.2" height="7.2" rx="1.5" fill="#e8202a" fill-opacity="0.16"/>
<rect x="54.4" y="286.6" width="7.2" height="7.2" rx="1.5" fill="#e8202a" fill-opacity="0.16"/>
<rect x="63.0" y="235.0" width="7.2" height="7.2" rx="1.5" fill="#e8202a" fill-opacity="0.16"/>
<rect x="63.0" y="243.6" width="7.2" height="7.2" rx="1.5" fill="#e8202a" fill-opacity="0.16"/>
<rect x="63.0" y="252.2" width="7.2" height="7.2" rx="1.5" fill="#e8202a" fill-opacity="0.16"/>
<rect x="63.0" y="260.8" width="7.2" height="7.2" rx="1.5" fill="#e8202a" fill-opacity="0.16"/>
<rect x="63.0" y="269.4" width="7.2" height="7.2" rx="1.5" fill="#e8202a" fill-opacity="0.16"/>
<rect x="63.0" y="278.0" width="7.2" height="7.2" rx="1.5" fill="#e8202a" fill-opacity="0.16"/>
<rect x="63.0" y="286.6" width="7.2" height="7.2" rx="1.5" fill="#e8202a" fill-opacity="0.16"/>
<rect x="71.6" y="235.0" width="7.2" height="7.2" rx="1.5" fill="#e8202a" fill-opacity="0.16"/>
<rect x="71.6" y="243.6" width="7.2" height="7.2" rx="1.5" fill="#e8202a" fill-opacity="0.16"/>
<rect x="71.6" y="252.2" width="7.2" height="7.2" rx="1.5" fill="#e8202a" fill-opacity="0.16"/>
<rect x="71.6" y="260.8" width="7.2" height="7.2" rx="1.5" fill="#e8202a" fill-opacity="0.16"/>
<rect x="71.6" y="269.4" width="7.2" height="7.2" rx="1.5" fill="#e8202a" fill-opacity="0.16"/>
<rect x="71.6" y="278.0" width="7.2" height="7.2" rx="1.5" fill="#e8202a" fill-opacity="0.16"/>
<rect x="71.6" y="286.6" width="7.2" height="7.2" rx="1.5" fill="#e8202a" fill-opacity="0.16"/>
<rect x="80.2" y="235.0" width="7.2" height="7.2" rx="1.5" fill="#e8202a" fill-opacity="0.16"/>
<rect x="80.2" y="243.6" width="7.2" height="7.2" rx="1.5" fill="#e8202a" fill-opacity="0.16"/>
<rect x="80.2" y="252.2" width="7.2" height="7.2" rx="1.5" fill="#e8202a" fill-opacity="0.16"/>
<rect x="80.2" y="260.8" width="7.2" height="7.2" rx="1.5" fill="#e8202a" fill-opacity="0.16"/>
<rect x="80.2" y="269.4" width="7.2" height="7.2" rx="1.5" fill="#e8202a" fill-opacity="0.16"/>
<rect x="80.2" y="278.0" width="7.2" height="7.2" rx="1.5" fill="#e8202a" fill-opacity="0.16"/>
<rect x="80.2" y="286.6" width="7.2" height="7.2" rx="1.5" fill="#e8202a" fill-opacity="0.16"/>
<rect x="88.8" y="235.0" width="7.2" height="7.2" rx="1.5" fill="#e8202a" fill-opacity="0.16"/>
<rect x="88.8" y="243.6" width="7.2" height="7.2" rx="1.5" fill="#e8202a" fill-opacity="0.16"/>
<rect x="88.8" y="252.2" width="7.2" height="7.2" rx="1.5" fill="#e8202a" fill-opacity="0.16"/>
<rect x="88.8" y="260.8" width="7.2" height="7.2" rx="1.5" fill="#e8202a" fill-opacity="0.16"/>
<rect x="88.8" y="269.4" width="7.2" height="7.2" rx="1.5" fill="#e8202a" fill-opacity="0.16"/>
<rect x="88.8" y="278.0" width="7.2" height="7.2" rx="1.5" fill="#e8202a" fill-opacity="0.16"/>
<rect x="88.8" y="286.6" width="7.2" height="7.2" rx="1.5" fill="#e8202a" fill-opacity="0.16"/>
<rect x="97.4" y="235.0" width="7.2" height="7.2" rx="1.5" fill="#e8202a" fill-opacity="0.16"/>
<rect x="97.4" y="243.6" width="7.2" height="7.2" rx="1.5" fill="#e8202a" fill-opacity="0.16"/>
<rect x="97.4" y="252.2" width="7.2" height="7.2" rx="1.5" fill="#e8202a" fill-opacity="0.16"/>
<rect x="97.4" y="260.8" width="7.2" height="7.2" rx="1.5" fill="#e8202a" fill-opacity="0.16"/>
<rect x="97.4" y="269.4" width="7.2" height="7.2" rx="1.5" fill="#e8202a" fill-opacity="0.16"/>
<rect x="97.4" y="278.0" width="7.2" height="7.2" rx="1.5" fill="#e8202a" fill-opacity="0.16"/>
<rect x="97.4" y="286.6" width="7.2" height="7.2" rx="1.5" fill="#e8202a" fill-opacity="0.16"/>
<rect x="106.0" y="235.0" width="7.2" height="7.2" rx="1.5" fill="#e8202a" fill-opacity="0.16"/>
<rect x="106.0" y="243.6" width="7.2" height="7.2" rx="1.5" fill="#e8202a" fill-opacity="0.16"/>
<rect x="106.0" y="252.2" width="7.2" height="7.2" rx="1.5" fill="#e8202a" fill-opacity="0.16"/>
<rect x="106.0" y="260.8" width="7.2" height="7.2" rx="1.5" fill="#e8202a" fill-opacity="0.16"/>
<rect x="106.0" y="269.4" width="7.2" height="7.2" rx="1.5" fill="#e8202a" fill-opacity="0.16"/>
<rect x="106.0" y="278.0" width="7.2" height="7.2" rx="1.5" fill="#e8202a" fill-opacity="0.16"/>
<rect x="106.0" y="286.6" width="7.2" height="7.2" rx="1.5" fill="#e8202a" fill-opacity="0.16"/>
<rect x="114.6" y="235.0" width="7.2" height="7.2" rx="1.5" fill="#e8202a" fill-opacity="0.16"/>
<rect x="114.6" y="243.6" width="7.2" height="7.2" rx="1.5" fill="#e8202a" fill-opacity="0.16"/>
<rect x="114.6" y="252.2" width="7.2" height="7.2" rx="1.5" fill="#e8202a" fill-opacity="0.16"/>
<rect x="114.6" y="260.8" width="7.2" height="7.2" rx="1.5" fill="#e8202a" fill-opacity="0.16"/>
<rect x="114.6" y="269.4" width="7.2" height="7.2" rx="1.5" fill="#e8202a" fill-opacity="0.16"/>
<rect x="114.6" y="278.0" width="7.2" height="7.2" rx="1.5" fill="#e8202a" fill-opacity="0.16"/>
<rect x="114.6" y="286.6" width="7.2" height="7.2" rx="1.5" fill="#e8202a" fill-opacity="0.16"/>
<rect x="123.2" y="235.0" width="7.2" height="7.2" rx="1.5" fill="#e8202a" fill-opacity="0.16"/>
<rect x="123.2" y="243.6" width="7.2" height="7.2" rx="1.5" fill="#e8202a" fill-opacity="0.16"/>
<rect x="123.2" y="252.2" width="7.2" height="7.2" rx="1.5" fill="#e8202a" fill-opacity="0.16"/>
<rect x="123.2" y="260.8" width="7.2" height="7.2" rx="1.5" fill="#e8202a" fill-opacity="0.16"/>
<rect x="123.2" y="269.4" width="7.2" height="7.2" rx="1.5" fill="#e8202a" fill-opacity="0.16"/>
<rect x="123.2" y="278.0" width="7.2" height="7.2" rx="1.5" fill="#e8202a" fill-opacity="0.16"/>
<rect x="123.2" y="286.6" width="7.2" height="7.2" rx="1.5" fill="#e8202a" fill-opacity="0.16"/>
<rect x="131.8" y="235.0" width="7.2" height="7.2" rx="1.5" fill="#e8202a" fill-opacity="0.16"/>
<rect x="131.8" y="243.6" width="7.2" height="7.2" rx="1.5" fill="#e8202a" fill-opacity="0.16"/>
<rect x="131.8" y="252.2" width="7.2" height="7.2" rx="1.5" fill="#e8202a" fill-opacity="0.16"/>
<rect x="131.8" y="260.8" width="7.2" height="7.2" rx="1.5" fill="#e8202a" fill-opacity="0.16"/>
<rect x="131.8" y="269.4" width="7.2" height="7.2" rx="1.5" fill="#e8202a" fill-opacity="0.16"/>
<rect x="131.8" y="278.0" width="7.2" height="7.2" rx="1.5" fill="#e8202a" fill-opacity="0.16"/>
<rect x="131.8" y="286.6" width="7.2" height="7.2" rx="1.5" fill="#e8202a" fill-opacity="0.16"/>
<rect x="140.4" y="235.0" width="7.2" height="7.2" rx="1.5" fill="#e8202a" fill-opacity="0.16"/>
<rect x="140.4" y="243.6" width="7.2" height="7.2" rx="1.5" fill="#e8202a" fill-opacity="0.16"/>
<rect x="140.4" y="252.2" width="7.2" height="7.2" rx="1.5" fill="#e8202a" fill-opacity="0.16"/>
<rect x="140.4" y="260.8" width="7.2" height="7.2" rx="1.5" fill="#e8202a" fill-opacity="0.16"/>
<rect x="140.4" y="269.4" width="7.2" height="7.2" rx="1.5" fill="#e8202a" fill-opacity="0.16"/>
<rect x="140.4" y="278.0" width="7.2" height="7.2" rx="1.5" fill="#e8202a" fill-opacity="0.16"/>
<rect x="140.4" y="286.6" width="7.2" height="7.2" rx="1.5" fill="#e8202a" fill-opacity="0.16"/>
<rect x="149.0" y="235.0" width="7.2" height="7.2" rx="1.5" fill="#e8202a" fill-opacity="0.16"/>
<rect x="149.0" y="243.6" width="7.2" height="7.2" rx="1.5" fill="#e8202a" fill-opacity="0.16"/>
<rect x="149.0" y="252.2" width="7.2" height="7.2" rx="1.5" fill="#e8202a" fill-opacity="0.16"/>
<rect x="149.0" y="260.8" width="7.2" height="7.2" rx="1.5" fill="#e8202a" fill-opacity="0.16"/>
<rect x="149.0" y="269.4" width="7.2" height="7.2" rx="1.5" fill="#e8202a" fill-opacity="0.16"/>
<rect x="149.0" y="278.0" width="7.2" height="7.2" rx="1.5" fill="#e8202a" fill-opacity="0.16"/>
<rect x="149.0" y="286.6" width="7.2" height="7.2" rx="1.5" fill="#e8202a" fill-opacity="0.16"/>
<rect x="157.6" y="235.0" width="7.2" height="7.2" rx="1.5" fill="#e8202a" fill-opacity="0.16"/>
<rect x="157.6" y="243.6" width="7.2" height="7.2" rx="1.5" fill="#e8202a" fill-opacity="0.16"/>
<rect x="157.6" y="252.2" width="7.2" height="7.2" rx="1.5" fill="#e8202a" fill-opacity="0.16"/>
<rect x="157.6" y="260.8" width="7.2" height="7.2" rx="1.5" fill="#e8202a" fill-opacity="0.16"/>
<rect x="157.6" y="269.4" width="7.2" height="7.2" rx="1.5" fill="#e8202a" fill-opacity="0.16"/>
<rect x="157.6" y="278.0" width="7.2" height="7.2" rx="1.5" fill="#e8202a" fill-opacity="0.16"/>
<rect x="157.6" y="286.6" width="7.2" height="7.2" rx="1.5" fill="#e8202a" fill-opacity="0.16"/>
<rect x="166.2" y="235.0" width="7.2" height="7.2" rx="1.5" fill="#e8202a" fill-opacity="0.16"/>
<rect x="166.2" y="243.6" width="7.2" height="7.2" rx="1.5" fill="#e8202a" fill-opacity="0.16"/>
<rect x="166.2" y="252.2" width="7.2" height="7.2" rx="1.5" fill="#e8202a" fill-opacity="0.16"/>
<rect x="166.2" y="260.8" width="7.2" height="7.2" rx="1.5" fill="#e8202a" fill-opacity="0.16"/>
<rect x="166.2" y="269.4" width="7.2" height="7.2" rx="1.5" fill="#e8202a" fill-opacity="0.16"/>
<rect x="166.2" y="278.0" width="7.2" height="7.2" rx="1.5" fill="#e8202a" fill-opacity="0.16"/>
<rect x="166.2" y="286.6" width="7.2" height="7.2" rx="1.5" fill="#e8202a" fill-opacity="0.16"/>
<rect x="174.8" y="235.0" width="7.2" height="7.2" rx="1.5" fill="#e8202a" fill-opacity="0.16"/>
<rect x="174.8" y="243.6" width="7.2" height="7.2" rx="1.5" fill="#e8202a" fill-opacity="0.16"/>
<rect x="174.8" y="252.2" width="7.2" height="7.2" rx="1.5" fill="#e8202a" fill-opacity="0.16"/>
<rect x="174.8" y="260.8" width="7.2" height="7.2" rx="1.5" fill="#e8202a" fill-opacity="0.16"/>
<rect x="174.8" y="269.4" width="7.2" height="7.2" rx="1.5" fill="#e8202a" fill-opacity="0.16"/>
<rect x="174.8" y="278.0" width="7.2" height="7.2" rx="1.5" fill="#e8202a" fill-opacity="0.16"/>
<rect x="174.8" y="286.6" width="7.2" height="7.2" rx="1.5" fill="#e8202a" fill-opacity="0.16"/>
<rect x="183.4" y="235.0" width="7.2" height="7.2" rx="1.5" fill="#e8202a" fill-opacity="0.16"/>
<rect x="183.4" y="243.6" width="7.2" height="7.2" rx="1.5" fill="#e8202a" fill-opacity="0.16"/>
<rect x="183.4" y="252.2" width="7.2" height="7.2" rx="1.5" fill="#e8202a" fill-opacity="0.16"/>
<rect x="183.4" y="260.8" width="7.2" height="7.2" rx="1.5" fill="#e8202a" fill-opacity="0.16"/>
<rect x="183.4" y="269.4" width="7.2" height="7.2" rx="1.5" fill="#e8202a" fill-opacity="0.16"/>
<rect x="183.4" y="278.0" width="7.2" height="7.2" rx="1.5" fill="#e8202a" fill-opacity="0.16"/>
<rect x="183.4" y="286.6" width="7.2" height="7.2" rx="1.5" fill="#e8202a" fill-opacity="0.16"/>
<rect x="192.0" y="235.0" width="7.2" height="7.2" rx="1.5" fill="#e8202a" fill-opacity="0.16"/>
<rect x="192.0" y="243.6" width="7.2" height="7.2" rx="1.5" fill="#e8202a" fill-opacity="0.16"/>
<rect x="192.0" y="252.2" width="7.2" height="7.2" rx="1.5" fill="#e8202a" fill-opacity="0.16"/>
<rect x="192.0" y="260.8" width="7.2" height="7.2" rx="1.5" fill="#e8202a" fill-opacity="0.16"/>
<rect x="192.0" y="269.4" width="7.2" height="7.2" rx="1.5" fill="#e8202a" fill-opacity="0.16"/>
<rect x="192.0" y="278.0" width="7.2" height="7.2" rx="1.5" fill="#e8202a" fill-opacity="0.16"/>
<rect x="192.0" y="286.6" width="7.2" height="7.2" rx="1.5" fill="#e8202a" fill-opacity="0.16"/>
<rect x="200.6" y="235.0" width="7.2" height="7.2" rx="1.5" fill="#e8202a" fill-opacity="0.16"/>
<rect x="200.6" y="243.6" width="7.2" height="7.2" rx="1.5" fill="#e8202a" fill-opacity="0.16"/>
<rect x="200.6" y="252.2" width="7.2" height="7.2" rx="1.5" fill="#e8202a" fill-opacity="0.16"/>
<rect x="200.6" y="260.8" width="7.2" height="7.2" rx="1.5" fill="#e8202a" fill-opacity="0.16"/>
<rect x="200.6" y="269.4" width="7.2" height="7.2" rx="1.5" fill="#e8202a" fill-opacity="0.16"/>
<rect x="200.6" y="278.0" width="7.2" height="7.2" rx="1.5" fill="#e8202a" fill-opacity="0.16"/>
<rect x="200.6" y="286.6" width="7.2" height="7.2" rx="1.5" fill="#e8202a" fill-opacity="0.16"/>
<rect x="209.2" y="235.0" width="7.2" height="7.2" rx="1.5" fill="#e8202a" fill-opacity="0.16"/>
<rect x="209.2" y="243.6" width="7.2" height="7.2" rx="1.5" fill="#e8202a" fill-opacity="0.16"/>
<rect x="209.2" y="252.2" width="7.2" height="7.2" rx="1.5" fill="#e8202a" fill-opacity="0.16"/>
<rect x="209.2" y="260.8" width="7.2" height="7.2" rx="1.5" fill="#e8202a" fill-opacity="0.16"/>
<rect x="209.2" y="269.4" width="7.2" height="7.2" rx="1.5" fill="#e8202a" fill-opacity="0.16"/>
<rect x="209.2" y="278.0" width="7.2" height="7.2" rx="1.5" fill="#e8202a" fill-opacity="0.16"/>
<rect x="209.2" y="286.6" width="7.2" height="7.2" rx="1.5" fill="#e8202a" fill-opacity="0.16"/>
<rect x="217.8" y="235.0" width="7.2" height="7.2" rx="1.5" fill="#e8202a" fill-opacity="0.16"/>
<rect x="217.8" y="243.6" width="7.2" height="7.2" rx="1.5" fill="#e8202a" fill-opacity="0.16"/>
<rect x="217.8" y="252.2" width="7.2" height="7.2" rx="1.5" fill="#e8202a" fill-opacity="0.16"/>
<rect x="217.8" y="260.8" width="7.2" height="7.2" rx="1.5" fill="#e8202a" fill-opacity="0.16"/>
<rect x="217.8" y="269.4" width="7.2" height="7.2" rx="1.5" fill="#e8202a" fill-opacity="0.16"/>
<rect x="217.8" y="278.0" width="7.2" height="7.2" rx="1.5" fill="#e8202a" fill-opacity="0.16"/>
<rect x="217.8" y="286.6" width="7.2" height="7.2" rx="1.5" fill="#e8202a" fill-opacity="0.16"/>
<rect x="226.4" y="235.0" width="7.2" height="7.2" rx="1.5" fill="#e8202a" fill-opacity="0.16"/>
<rect x="226.4" y="243.6" width="7.2" height="7.2" rx="1.5" fill="#e8202a" fill-opacity="0.16"/>
<rect x="226.4" y="252.2" width="7.2" height="7.2" rx="1.5" fill="#e8202a" fill-opacity="0.16"/>
<rect x="226.4" y="260.8" width="7.2" height="7.2" rx="1.5" fill="#e8202a" fill-opacity="0.16"/>
<rect x="226.4" y="269.4" width="7.2" height="7.2" rx="1.5" fill="#e8202a" fill-opacity="0.16"/>
<rect x="226.4" y="278.0" width="7.2" height="7.2" rx="1.5" fill="#e8202a" fill-opacity="0.16"/>
<rect x="226.4" y="286.6" width="7.2" height="7.2" rx="1.5" fill="#e8202a" fill-opacity="0.16"/>
<rect x="235.0" y="235.0" width="7.2" height="7.2" rx="1.5" fill="#e8202a" fill-opacity="0.16"/>
<rect x="235.0" y="243.6" width="7.2" height="7.2" rx="1.5" fill="#e8202a" fill-opacity="0.16"/>
<rect x="235.0" y="252.2" width="7.2" height="7.2" rx="1.5" fill="#e8202a" fill-opacity="0.16"/>
<rect x="235.0" y="260.8" width="7.2" height="7.2" rx="1.5" fill="#e8202a" fill-opacity="0.16"/>
<rect x="235.0" y="269.4" width="7.2" height="7.2" rx="1.5" fill="#e8202a" fill-opacity="0.16"/>
<rect x="235.0" y="278.0" width="7.2" height="7.2" rx="1.5" fill="#e8202a" fill-opacity="0.16"/>
<rect x="235.0" y="286.6" width="7.2" height="7.2" rx="1.5" fill="#e8202a" fill-opacity="0.16"/>
<rect x="243.6" y="235.0" width="7.2" height="7.2" rx="1.5" fill="#e8202a" fill-opacity="0.16"/>
<rect x="243.6" y="243.6" width="7.2" height="7.2" rx="1.5" fill="#e8202a" fill-opacity="0.16"/>
<rect x="243.6" y="252.2" width="7.2" height="7.2" rx="1.5" fill="#e8202a" fill-opacity="0.16"/>
<rect x="243.6" y="260.8" width="7.2" height="7.2" rx="1.5" fill="#e8202a" fill-opacity="0.16"/>
<rect x="243.6" y="269.4" width="7.2" height="7.2" rx="1.5" fill="#e8202a" fill-opacity="0.16"/>
<rect x="243.6" y="278.0" width="7.2" height="7.2" rx="1.5" fill="#e8202a" fill-opacity="0.16"/>
<rect x="243.6" y="286.6" width="7.2" height="7.2" rx="1.5" fill="#e8202a" fill-opacity="0.16"/>
<rect x="252.2" y="235.0" width="7.2" height="7.2" rx="1.5" fill="#e8202a" fill-opacity="0.16"/>
<rect x="252.2" y="243.6" width="7.2" height="7.2" rx="1.5" fill="#e8202a" fill-opacity="0.16"/>
<rect x="252.2" y="252.2" width="7.2" height="7.2" rx="1.5" fill="#e8202a" fill-opacity="0.16"/>
<rect x="252.2" y="260.8" width="7.2" height="7.2" rx="1.5" fill="#e8202a" fill-opacity="0.16"/>
<rect x="252.2" y="269.4" width="7.2" height="7.2" rx="1.5" fill="#e8202a" fill-opacity="0.16"/>
<rect x="252.2" y="278.0" width="7.2" height="7.2" rx="1.5" fill="#e8202a" fill-opacity="0.16"/>
<rect x="252.2" y="286.6" width="7.2" height="7.2" rx="1.5" fill="#e8202a" fill-opacity="0.16"/>
<rect x="260.8" y="235.0" width="7.2" height="7.2" rx="1.5" fill="#e8202a" fill-opacity="0.16"/>
<rect x="260.8" y="243.6" width="7.2" height="7.2" rx="1.5" fill="#e8202a" fill-opacity="0.16"/>
<rect x="260.8" y="252.2" width="7.2" height="7.2" rx="1.5" fill="#e8202a" fill-opacity="0.16"/>
<rect x="260.8" y="260.8" width="7.2" height="7.2" rx="1.5" fill="#e8202a" fill-opacity="0.16"/>
<rect x="260.8" y="269.4" width="7.2" height="7.2" rx="1.5" fill="#e8202a" fill-opacity="0.16"/>
<rect x="260.8" y="278.0" width="7.2" height="7.2" rx="1.5" fill="#e8202a" fill-opacity="0.16"/>
<rect x="260.8" y="286.6" width="7.2" height="7.2" rx="1.5" fill="#e8202a" fill-opacity="0.16"/>
<rect x="269.4" y="235.0" width="7.2" height="7.2" rx="1.5" fill="#e8202a" fill-opacity="0.16"/>
<rect x="269.4" y="243.6" width="7.2" height="7.2" rx="1.5" fill="#e8202a" fill-opacity="0.16"/>
<rect x="269.4" y="252.2" width="7.2" height="7.2" rx="1.5" fill="#e8202a" fill-opacity="0.16"/>
<rect x="269.4" y="260.8" width="7.2" height="7.2" rx="1.5" fill="#e8202a" fill-opacity="0.16"/>
<rect x="269.4" y="269.4" width="7.2" height="7.2" rx="1.5" fill="#e8202a" fill-opacity="0.16"/>
<rect x="269.4" y="278.0" width="7.2" height="7.2" rx="1.5" fill="#e8202a" fill-opacity="0.16"/>
<rect x="269.4" y="286.6" width="7.2" height="7.2" rx="1.5" fill="#e8202a" fill-opacity="0.16"/>
<rect x="278.0" y="235.0" width="7.2" height="7.2" rx="1.5" fill="#e8202a" fill-opacity="0.16"/>
<rect x="278.0" y="243.6" width="7.2" height="7.2" rx="1.5" fill="#e8202a" fill-opacity="0.16"/>
<rect x="278.0" y="252.2" width="7.2" height="7.2" rx="1.5" fill="#e8202a" fill-opacity="0.16"/>
<rect x="278.0" y="260.8" width="7.2" height="7.2" rx="1.5" fill="#e8202a" fill-opacity="0.16"/>
<rect x="278.0" y="269.4" width="7.2" height="7.2" rx="1.5" fill="#e8202a" fill-opacity="0.16"/>
<rect x="278.0" y="278.0" width="7.2" height="7.2" rx="1.5" fill="#e8202a" fill-opacity="0.16"/>
<rect x="278.0" y="286.6" width="7.2" height="7.2" rx="1.5" fill="#e8202a" fill-opacity="0.16"/>
<rect x="286.6" y="235.0" width="7.2" height="7.2" rx="1.5" fill="#e8202a" fill-opacity="0.16"/>
<rect x="286.6" y="243.6" width="7.2" height="7.2" rx="1.5" fill="#e8202a" fill-opacity="0.16"/>
<rect x="286.6" y="252.2" width="7.2" height="7.2" rx="1.5" fill="#e8202a" fill-opacity="0.16"/>
<rect x="286.6" y="260.8" width="7.2" height="7.2" rx="1.5" fill="#e8202a" fill-opacity="0.16"/>
<rect x="286.6" y="269.4" width="7.2" height="7.2" rx="1.5" fill="#e8202a" fill-opacity="0.16"/>
<rect x="286.6" y="278.0" width="7.2" height="7.2" rx="1.5" fill="#e8202a" fill-opacity="0.16"/>
<rect x="286.6" y="286.6" width="7.2" height="7.2" rx="1.5" fill="#e8202a" fill-opacity="0.16"/>
<rect x="295.2" y="235.0" width="7.2" height="7.2" rx="1.5" fill="#e8202a" fill-opacity="0.16"/>
<rect x="295.2" y="243.6" width="7.2" height="7.2" rx="1.5" fill="#e8202a" fill-opacity="0.16"/>
<rect x="295.2" y="252.2" width="7.2" height="7.2" rx="1.5" fill="#e8202a" fill-opacity="0.16"/>
<rect x="295.2" y="260.8" width="7.2" height="7.2" rx="1.5" fill="#e8202a" fill-opacity="0.16"/>
<rect x="295.2" y="269.4" width="7.2" height="7.2" rx="1.5" fill="#e8202a" fill-opacity="0.16"/>
<rect x="295.2" y="278.0" width="7.2" height="7.2" rx="1.5" fill="#e8202a" fill-opacity="0.16"/>
<rect x="295.2" y="286.6" width="7.2" height="7.2" rx="1.5" fill="#e8202a" fill-opacity="0.16"/>
<rect x="303.8" y="235.0" width="7.2" height="7.2" rx="1.5" fill="#e8202a" fill-opacity="0.16"/>
<rect x="303.8" y="243.6" width="7.2" height="7.2" rx="1.5" fill="#e8202a" fill-opacity="0.16"/>
<rect x="303.8" y="252.2" width="7.2" height="7.2" rx="1.5" fill="#e8202a" fill-opacity="0.16"/>
<rect x="303.8" y="260.8" width="7.2" height="7.2" rx="1.5" fill="#e8202a" fill-opacity="0.16"/>
<rect x="303.8" y="269.4" width="7.2" height="7.2" rx="1.5" fill="#e8202a" fill-opacity="0.16"/>
<rect x="303.8" y="278.0" width="7.2" height="7.2" rx="1.5" fill="#e8202a" fill-opacity="0.16"/>
<rect x="303.8" y="286.6" width="7.2" height="7.2" rx="1.5" fill="#e8202a" fill-opacity="0.16"/>
<rect x="312.4" y="235.0" width="7.2" height="7.2" rx="1.5" fill="#e8202a" fill-opacity="0.16"/>
<rect x="312.4" y="243.6" width="7.2" height="7.2" rx="1.5" fill="#e8202a" fill-opacity="0.16"/>
<rect x="312.4" y="252.2" width="7.2" height="7.2" rx="1.5" fill="#e8202a" fill-opacity="0.16"/>
<rect x="312.4" y="260.8" width="7.2" height="7.2" rx="1.5" fill="#e8202a" fill-opacity="0.16"/>
<rect x="312.4" y="269.4" width="7.2" height="7.2" rx="1.5" fill="#e8202a" fill-opacity="0.16"/>
<rect x="312.4" y="278.0" width="7.2" height="7.2" rx="1.5" fill="#e8202a" fill-opacity="0.16"/>
<rect x="312.4" y="286.6" width="7.2" height="7.2" rx="1.5" fill="#e8202a" fill-opacity="0.16"/>
<rect x="321.0" y="235.0" width="7.2" height="7.2" rx="1.5" fill="#e8202a" fill-opacity="0.16"/>
<rect x="321.0" y="243.6" width="7.2" height="7.2" rx="1.5" fill="#e8202a" fill-opacity="0.16"/>
<rect x="321.0" y="252.2" width="7.2" height="7.2" rx="1.5" fill="#e8202a" fill-opacity="0.16"/>
<rect x="321.0" y="260.8" width="7.2" height="7.2" rx="1.5" fill="#e8202a" fill-opacity="0.16"/>
<rect x="321.0" y="269.4" width="7.2" height="7.2" rx="1.5" fill="#e8202a" fill-opacity="0.16"/>
<rect x="321.0" y="278.0" width="7.2" height="7.2" rx="1.5" fill="#e8202a" fill-opacity="0.16"/>
<rect x="321.0" y="286.6" width="7.2" height="7.2" rx="1.5" fill="#e8202a" fill-opacity="0.16"/>
<rect x="329.6" y="235.0" width="7.2" height="7.2" rx="1.5" fill="#e8202a" fill-opacity="0.16"/>
<rect x="329.6" y="243.6" width="7.2" height="7.2" rx="1.5" fill="#e8202a" fill-opacity="0.16"/>
<rect x="329.6" y="252.2" width="7.2" height="7.2" rx="1.5" fill="#e8202a" fill-opacity="0.16"/>
<rect x="329.6" y="260.8" width="7.2" height="7.2" rx="1.5" fill="#e8202a" fill-opacity="0.16"/>
<rect x="329.6" y="269.4" width="7.2" height="7.2" rx="1.5" fill="#e8202a" fill-opacity="0.16"/>
<rect x="329.6" y="278.0" width="7.2" height="7.2" rx="1.5" fill="#e8202a" fill-opacity="0.16"/>
<rect x="329.6" y="286.6" width="7.2" height="7.2" rx="1.5" fill="#e8202a" fill-opacity="0.16"/>
<rect x="338.2" y="235.0" width="7.2" height="7.2" rx="1.5" fill="#e8202a" fill-opacity="0.16"/>
<rect x="338.2" y="243.6" width="7.2" height="7.2" rx="1.5" fill="#e8202a" fill-opacity="0.16"/>
<rect x="338.2" y="252.2" width="7.2" height="7.2" rx="1.5" fill="#e8202a" fill-opacity="0.16"/>
<rect x="338.2" y="260.8" width="7.2" height="7.2" rx="1.5" fill="#e8202a" fill-opacity="0.16"/>
<rect x="338.2" y="269.4" width="7.2" height="7.2" rx="1.5" fill="#e8202a" fill-opacity="0.16"/>
<rect x="338.2" y="278.0" width="7.2" height="7.2" rx="1.5" fill="#e8202a" fill-opacity="0.16"/>
<rect x="338.2" y="286.6" width="7.2" height="7.2" rx="1.5" fill="#e8202a" fill-opacity="0.16"/>
<rect x="346.8" y="235.0" width="7.2" height="7.2" rx="1.5" fill="#e8202a" fill-opacity="0.16"/>
<rect x="346.8" y="243.6" width="7.2" height="7.2" rx="1.5" fill="#e8202a" fill-opacity="0.16"/>
<rect x="346.8" y="252.2" width="7.2" height="7.2" rx="1.5" fill="#e8202a" fill-opacity="0.16"/>
<rect x="346.8" y="260.8" width="7.2" height="7.2" rx="1.5" fill="#e8202a" fill-opacity="0.16"/>
<rect x="346.8" y="269.4" width="7.2" height="7.2" rx="1.5" fill="#e8202a" fill-opacity="0.16"/>
<rect x="346.8" y="278.0" width="7.2" height="7.2" rx="1.5" fill="#e8202a" fill-opacity="0.16"/>
<rect x="346.8" y="286.6" width="7.2" height="7.2" rx="1.5" fill="#e8202a" fill-opacity="0.16"/>
<rect x="355.4" y="235.0" width="7.2" height="7.2" rx="1.5" fill="#e8202a" fill-opacity="0.16"/>
<rect x="355.4" y="243.6" width="7.2" height="7.2" rx="1.5" fill="#e8202a" fill-opacity="0.16"/>
<rect x="355.4" y="252.2" width="7.2" height="7.2" rx="1.5" fill="#e8202a" fill-opacity="0.16"/>
<rect x="355.4" y="260.8" width="7.2" height="7.2" rx="1.5" fill="#e8202a" fill-opacity="0.16"/>
<rect x="355.4" y="269.4" width="7.2" height="7.2" rx="1.5" fill="#e8202a" fill-opacity="0.16"/>
<rect x="355.4" y="278.0" width="7.2" height="7.2" rx="1.5" fill="#e8202a" fill-opacity="0.16"/>
<rect x="355.4" y="286.6" width="7.2" height="7.2" rx="1.5" fill="#e8202a" fill-opacity="0.16"/>
<rect x="364.0" y="235.0" width="7.2" height="7.2" rx="1.5" fill="#e8202a" fill-opacity="0.16"/>
<rect x="364.0" y="243.6" width="7.2" height="7.2" rx="1.5" fill="#e8202a" fill-opacity="0.16"/>
<rect x="364.0" y="252.2" width="7.2" height="7.2" rx="1.5" fill="#e8202a" fill-opacity="0.16"/>
<rect x="364.0" y="260.8" width="7.2" height="7.2" rx="1.5" fill="#e8202a" fill-opacity="0.16"/>
<rect x="364.0" y="269.4" width="7.2" height="7.2" rx="1.5" fill="#e8202a" fill-opacity="0.16"/>
<rect x="364.0" y="278.0" width="7.2" height="7.2" rx="1.5" fill="#e8202a" fill-opacity="0.16"/>
<rect x="364.0" y="286.6" width="7.2" height="7.2" rx="1.5" fill="#e8202a" fill-opacity="0.16"/>
<rect x="372.6" y="235.0" width="7.2" height="7.2" rx="1.5" fill="#e8202a" fill-opacity="0.16"/>
<rect x="372.6" y="243.6" width="7.2" height="7.2" rx="1.5" fill="#e8202a" fill-opacity="0.16"/>
<rect x="372.6" y="252.2" width="7.2" height="7.2" rx="1.5" fill="#e8202a" fill-opacity="0.16"/>
<rect x="372.6" y="260.8" width="7.2" height="7.2" rx="1.5" fill="#e8202a" fill-opacity="0.16"/>
<rect x="372.6" y="269.4" width="7.2" height="7.2" rx="1.5" fill="#e8202a" fill-opacity="0.16"/>
<rect x="372.6" y="278.0" width="7.2" height="7.2" rx="1.5" fill="#e8202a" fill-opacity="0.16"/>
<rect x="372.6" y="286.6" width="7.2" height="7.2" rx="1.5" fill="#e8202a" fill-opacity="0.16"/>
<rect x="381.2" y="235.0" width="7.2" height="7.2" rx="1.5" fill="#e8202a" fill-opacity="0.16"/>
<rect x="381.2" y="243.6" width="7.2" height="7.2" rx="1.5" fill="#e8202a" fill-opacity="0.16"/>
<rect x="381.2" y="252.2" width="7.2" height="7.2" rx="1.5" fill="#e8202a" fill-opacity="0.16"/>
<rect x="381.2" y="260.8" width="7.2" height="7.2" rx="1.5" fill="#e8202a" fill-opacity="0.16"/>
<rect x="381.2" y="269.4" width="7.2" height="7.2" rx="1.5" fill="#e8202a" fill-opacity="0.16"/>
<rect x="381.2" y="278.0" width="7.2" height="7.2" rx="1.5" fill="#e8202a" fill-opacity="0.16"/>
<rect x="381.2" y="286.6" width="7.2" height="7.2" rx="1.5" fill="#e8202a" fill-opacity="0.16"/>
<rect x="389.8" y="235.0" width="7.2" height="7.2" rx="1.5" fill="#e8202a" fill-opacity="0.16"/>
<rect x="389.8" y="243.6" width="7.2" height="7.2" rx="1.5" fill="#e8202a" fill-opacity="0.16"/>
<rect x="389.8" y="252.2" width="7.2" height="7.2" rx="1.5" fill="#e8202a" fill-opacity="0.16"/>
<rect x="389.8" y="260.8" width="7.2" height="7.2" rx="1.5" fill="#e8202a" fill-opacity="0.16"/>
<rect x="389.8" y="269.4" width="7.2" height="7.2" rx="1.5" fill="#e8202a" fill-opacity="0.16"/>
<rect x="389.8" y="278.0" width="7.2" height="7.2" rx="1.5" fill="#e8202a" fill-opacity="0.16"/>
<rect x="389.8" y="286.6" width="7.2" height="7.2" rx="1.5" fill="#e8202a" fill-opacity="0.16"/>
<rect x="398.4" y="235.0" width="7.2" height="7.2" rx="1.5" fill="#e8202a" fill-opacity="0.16"/>
<rect x="398.4" y="243.6" width="7.2" height="7.2" rx="1.5" fill="#e8202a" fill-opacity="0.16"/>
<rect x="398.4" y="252.2" width="7.2" height="7.2" rx="1.5" fill="#e8202a" fill-opacity="0.16"/>
<rect x="398.4" y="260.8" width="7.2" height="7.2" rx="1.5" fill="#e8202a" fill-opacity="0.16"/>
<rect x="398.4" y="269.4" width="7.2" height="7.2" rx="1.5" fill="#e8202a" fill-opacity="0.16"/>
<rect x="398.4" y="278.0" width="7.2" height="7.2" rx="1.5" fill="#e8202a" fill-opacity="0.16"/>
<rect x="398.4" y="286.6" width="7.2" height="7.2" rx="1.5" fill="#e8202a" fill-opacity="0.16"/>
<rect x="407.0" y="235.0" width="7.2" height="7.2" rx="1.5" fill="#e8202a" fill-opacity="0.16"/>
<rect x="407.0" y="243.6" width="7.2" height="7.2" rx="1.5" fill="#e8202a" fill-opacity="0.16"/>
<rect x="407.0" y="252.2" width="7.2" height="7.2" rx="1.5" fill="#e8202a" fill-opacity="0.16"/>
<rect x="407.0" y="260.8" width="7.2" height="7.2" rx="1.5" fill="#e8202a" fill-opacity="0.16"/>
<rect x="407.0" y="269.4" width="7.2" height="7.2" rx="1.5" fill="#e8202a" fill-opacity="0.16"/>
<rect x="407.0" y="278.0" width="7.2" height="7.2" rx="1.5" fill="#e8202a" fill-opacity="0.16"/>
<rect x="407.0" y="286.6" width="7.2" height="7.2" rx="1.5" fill="#e8202a" fill-opacity="0.16"/>
<rect x="415.6" y="235.0" width="7.2" height="7.2" rx="1.5" fill="#e8202a" fill-opacity="0.16"/>
<rect x="415.6" y="243.6" width="7.2" height="7.2" rx="1.5" fill="#e8202a" fill-opacity="0.16"/>
<rect x="415.6" y="252.2" width="7.2" height="7.2" rx="1.5" fill="#e8202a" fill-opacity="0.16"/>
<rect x="415.6" y="260.8" width="7.2" height="7.2" rx="1.5" fill="#e8202a" fill-opacity="0.16"/>
<rect x="415.6" y="269.4" width="7.2" height="7.2" rx="1.5" fill="#e8202a" fill-opacity="0.16"/>
<rect x="415.6" y="278.0" width="7.2" height="7.2" rx="1.5" fill="#e8202a" fill-opacity="0.16"/>
<rect x="415.6" y="286.6" width="7.2" height="7.2" rx="1.5" fill="#e8202a" fill-opacity="0.16"/>
<rect x="424.2" y="235.0" width="7.2" height="7.2" rx="1.5" fill="#e8202a" fill-opacity="0.16"/>
<rect x="424.2" y="243.6" width="7.2" height="7.2" rx="1.5" fill="#e8202a" fill-opacity="0.16"/>
<rect x="424.2" y="252.2" width="7.2" height="7.2" rx="1.5" fill="#e8202a" fill-opacity="0.16"/>
<rect x="424.2" y="260.8" width="7.2" height="7.2" rx="1.5" fill="#e8202a" fill-opacity="0.16"/>
<rect x="424.2" y="269.4" width="7.2" height="7.2" rx="1.5" fill="#e8202a" fill-opacity="0.16"/>
<rect x="424.2" y="278.0" width="7.2" height="7.2" rx="1.5" fill="#e8202a" fill-opacity="0.16"/>
<rect x="424.2" y="286.6" width="7.2" height="7.2" rx="1.5" fill="#e8202a" fill-opacity="0.16"/>
<rect x="432.8" y="235.0" width="7.2" height="7.2" rx="1.5" fill="#e8202a" fill-opacity="0.16"/>
<rect x="432.8" y="243.6" width="7.2" height="7.2" rx="1.5" fill="#e8202a" fill-opacity="0.16"/>
<rect x="432.8" y="252.2" width="7.2" height="7.2" rx="1.5" fill="#e8202a" fill-opacity="0.16"/>
<rect x="432.8" y="260.8" width="7.2" height="7.2" rx="1.5" fill="#e8202a" fill-opacity="0.16"/>
<rect x="432.8" y="269.4" width="7.2" height="7.2" rx="1.5" fill="#e8202a" fill-opacity="0.16"/>
<rect x="432.8" y="278.0" width="7.2" height="7.2" rx="1.5" fill="#e8202a" fill-opacity="0.16"/>
<rect x="432.8" y="286.6" width="7.2" height="7.2" rx="1.5" fill="#e8202a" fill-opacity="0.16"/>
<rect x="441.4" y="235.0" width="7.2" height="7.2" rx="1.5" fill="#e8202a" fill-opacity="0.16"/>
<rect x="441.4" y="243.6" width="7.2" height="7.2" rx="1.5" fill="#e8202a" fill-opacity="0.16"/>
<rect x="441.4" y="252.2" width="7.2" height="7.2" rx="1.5" fill="#e8202a" fill-opacity="0.16"/>
<rect x="441.4" y="260.8" width="7.2" height="7.2" rx="1.5" fill="#e8202a" fill-opacity="0.16"/>
<rect x="441.4" y="269.4" width="7.2" height="7.2" rx="1.5" fill="#e8202a" fill-opacity="0.16"/>
<rect x="441.4" y="278.0" width="7.2" height="7.2" rx="1.5" fill="#e8202a" fill-opacity="0.16"/>
<rect x="441.4" y="286.6" width="7.2" height="7.2" rx="1.5" fill="#e8202a" fill-opacity="0.16"/>
<rect x="450.0" y="235.0" width="7.2" height="7.2" rx="1.5" fill="#e8202a" fill-opacity="0.16"/>
<rect x="450.0" y="243.6" width="7.2" height="7.2" rx="1.5" fill="#e8202a" fill-opacity="0.16"/>
<rect x="450.0" y="252.2" width="7.2" height="7.2" rx="1.5" fill="#e8202a" fill-opacity="0.16"/>
<rect x="450.0" y="260.8" width="7.2" height="7.2" rx="1.5" fill="#e8202a" fill-opacity="0.16"/>
<rect x="450.0" y="269.4" width="7.2" height="7.2" rx="1.5" fill="#e8202a" fill-opacity="0.16"/>
<rect x="450.0" y="278.0" width="7.2" height="7.2" rx="1.5" fill="#e8202a" fill-opacity="0.16"/>
<rect x="450.0" y="286.6" width="7.2" height="7.2" rx="1.5" fill="#e8202a" fill-opacity="0.16"/>
<rect x="458.6" y="235.0" width="7.2" height="7.2" rx="1.5" fill="#e8202a" fill-opacity="0.16"/>
<rect x="458.6" y="243.6" width="7.2" height="7.2" rx="1.5" fill="#e8202a" fill-opacity="0.16"/>
<rect x="458.6" y="252.2" width="7.2" height="7.2" rx="1.5" fill="#e8202a" fill-opacity="0.16"/>
<rect x="458.6" y="260.8" width="7.2" height="7.2" rx="1.5" fill="#e8202a" fill-opacity="0.16"/>
<rect x="458.6" y="269.4" width="7.2" height="7.2" rx="1.5" fill="#e8202a" fill-opacity="0.16"/>
<rect x="458.6" y="278.0" width="7.2" height="7.2" rx="1.5" fill="#e8202a" fill-opacity="0.16"/>
<rect x="458.6" y="286.6" width="7.2" height="7.2" rx="1.5" fill="#e8202a" fill-opacity="0.16"/>
<rect x="467.2" y="235.0" width="7.2" height="7.2" rx="1.5" fill="#e8202a" fill-opacity="0.16"/>
<text x="20" y="310" font-size="10" font-weight="400" fill="#f0f0f0" text-anchor="start">2025-10-12</text>
<text x="480" y="310" font-size="10" font-weight="400" fill="#f0f0f0" text-anchor="end">2026-10-11</text>
</svg>
